<?xml version="1.0" encoding="UTF-8"?>
<svg id="Layer_1" data-name="Layer 1" xmlns="http://www.w3.org/2000/svg" version="1.1" viewBox="0 0 350 350">
  <defs>
    <style>
      .cls-1 {
        isolation: isolate;
      }

      .cls-1, .cls-2 {
        fill: #aaa;
      }

      .cls-1, .cls-2, .cls-3, .cls-4, .cls-5, .cls-6 {
        stroke-width: 0px;
      }

      .cls-3 {
        fill: #4d4d4d;
      }

      .cls-4 {
        fill: #8e8e8e;
      }

      .cls-5 {
        fill: #666;
      }

      .cls-7 {
        fill: none;
        stroke: #fff;
        stroke-width: .7px;
      }

      .cls-7, .cls-8 {
        stroke-miterlimit: 10;
      }

      .cls-6 {
        fill: #fff;
      }

      .cls-8 {
        fill: #c72d25;
        stroke: #000;
        stroke-width: .5px;
      }
    </style>
  </defs>
  <g id="_1" data-name="1">
    <path class="cls-2" d="M67.8,165.9c5,.6,8.8,4.9,8.8,9.9,0,5.1-4,9.3-9,9.8-8.6.4-20.5.6-33.4,0-4.2-.2-9.2-.7-14.5-3.6-3.5-1.9-6.5-4.7-8.8-8-2.6-3.6-3.7-5.7-5.5-12.3-1-3.9-.6-12.6-.6-12.6l18.6,17.5c-2.5,4.2,2.2,7.3,4.9,7.3h16.1c2.3,0,6.8-4.3,7.3-8,.5-3.7-2-7.3-5.1-8.2-3.1-.9-8.9,2.9-8.9,2.9,0,0-1.1-2.5,2.9-6.2,3.8-3.4,8.1-4.5,13.1-3.3.3,0,3,.6,5.2,1.7,6.4,3.3,8.6,11.5,8.9,12.9Z"/>
    <path class="cls-5" d="M48.8,185.4l-27.7-3.2s4.8-2,13.8-.9c9,1.1,13.9,4.1,13.9,4.1h0Z"/>
  </g>
  <g id="_2" data-name="2">
    <path class="cls-2" d="M226.3,55.1s-5,.9-14.6,9.2c-9.5,8.3-37.8,45-37.8,45,0,0,4.2,4.5,3.1,11.9-1,6.8-5,10.4-17.2,27.5-1.5,2.1-2.7,3.8-3.5,4.9l4.7,1.6c10.5-15,21.1-29.9,31.6-44.9l33.5-55.3Z"/>
    <path class="cls-2" d="M172.4,103.8l22.8-11.4,3.8,2.4,44.6-21.1s1.5,1.2-8.2,10.1c-9.7,8.9-49.8,33.9-54.3,35.2-4.5,1.3-9.6-5.1-13.9-5.6-4.3-.6-41,27.2-41,27.2l.4,3.9c-1.2,2.7-2.4,5.4-3.5,8.1l-30.6-.7c26.7-16,53.3-32,80-48Z"/>
    <path class="cls-3" d="M188,110.3c-.9,2.2-3.5,3.3-5.7,2.4-2.2-.9-3.3-3.5-2.4-5.7,0,0,0,0,0,0,1-2.2,3.5-3.2,5.7-2.3,2.2.9,3.2,3.5,2.3,5.7Z"/>
    <path class="cls-4" d="M185.7,104.6c-1.9-.8-4-.2-5.2,1.4l7.8,3.3c.3-2-.8-3.9-2.6-4.7h0ZM179.6,108.2c-.2,1.9.8,3.7,2.7,4.5s3.9.2,5.1-1.3l-7.7-3.2Z"/>
  </g>
  <path id="_3" data-name="3" class="cls-2" d="M165.1,189.4s11,27.3,13,30c2,2.7,4.6,2.6,7.1,3.1s8.5.9,8.5.9c0,0-6.3,8.9-6.3,12.1,0,3.2-.3,2.8,2.2,4.3,2.5,1.5,12.1.4,12.1.4,0,0-6.3,8.5-6.6,10.8-.3,2.2.4,3.3,2.9,4.7,2.5,1.4,11.2.6,11.2.6l-5.6,8.6s-1.1,2.4-.5,4.1c.6,1.7,1.6,2.9,4.7,3.4s11.7-2.4,11.7-2.4l-.4-1.5-12.2-.8s6.7-8.5,6.9-11.7c.2-3.2.3-2.8-2.2-4.3-2.5-1.5-11.6-.4-11.6-.4,0,0,5.7-8.5,6.2-11.3.5-2.8,0-3.2-.8-4.2s-2.5-1-2.5-1c0,0-7.9.7-10.3.9s6.4-11.1,6.7-13.1c.3-1.9.4-2.5-2.2-4.3-2.6-1.8-13.9-1.3-13.9-1.3l-2.2-5.4,9.1-6.6-6-10.1-19-5.5Z"/>
  <g id="_4" data-name="4">
    <path class="cls-1" d="M72.4,3.7s-11,9.3-12.1,16.2c-1.1,6.9,5.4,145.6,5.4,145.6,9.7,4.9,19.4,9.9,29,14.8-.8-15.2-1.7-30.4-2.5-45.6,0,0-5.9.3-6.5-1.9-.6-2.2,5.6-4.6,5.6-4.6l-6,1.5-.5-3.1,5.6-4.5-6,1.4-.5-3.1,5.6-4.4-6.1,1.2-.5-3.1,5.6-4.2-6.1,1.1-.5-3.1,5.6-4.1-6.1,1-.5-3.1,5.7-4-6.1.8-.5-3.1,5.7-3.9-6.1.7-.5-3.1,5.7-3.7-6.1.6-.5-3.1,5.7-3.6-6.2.5-.5-3.1,5.7-3.5-6.2.3-.5-3.1,5.7-3.3-6.2.2-.5-3.1,5.8-3.2h-6.2c0,0-.5-3.1-.5-3.1l5.8-3.1h-6.2c0,0-.5-3.2-.5-3.2l5.8-3-6.3-.2-.5-3.1,5.8-2.8-6.3-.3-.5-3.1,5.8-2.7-6.3-.4-.5-3.1,5.9-2.6-6.3-.6-.5-3.1,5.9-2.4-6.3-.7-.5-3.1,5.9-2.2-2.8-13.9Z"/>
    <path class="cls-5" d="M70.6,143.2l20.5-5,.3,1.9-20.8,3.1Z"/>
    <path class="cls-5" d="M61.7,21.1l1.8,30.8s2.3-6.1,1.9-13.3-3.7-17.5-3.7-17.5h0Z"/>
  </g>
  <g id="_5" data-name="5">
    <path class="cls-1" d="M184.9,31.2c-.4,1.1-8.5-.7-23.4,11.1-17,13.5-26.4,32-36.4,47.7-.7,1-12.9,20.6-21.6,34.1-10.8,16.7-20,30-26.1,38.7,6.5,3.5,12.9,7,19.4,10.4,9.6-12.6,19.3-25.3,28.9-37.9,0,0-1.7-.9.2-4.1s3.3-2.5,3.3-2.5c0,0,6.3-8.6,15.5-20,4.4-5.4,15-17.8,24.3-32.8,9-14.6,11.9-25,13-29.2,1.7-6.3,2.6-11.7,3-15.7Z"/>
    <path class="cls-5" d="M108.5,118.5l17.5,11.7-1.2,1.5-16.4-13.2Z"/>
    <path class="cls-5" d="M160,45.3l-19.4,23.9s5.8-3,10.3-8.5c4.5-5.5,9.1-15.4,9.1-15.4Z"/>
  </g>
  <path id="_6" data-name="6" class="cls-2" d="M165.4,193.3l-4.1,87.5,3.8,8h1.1c0,0,5.3-7.9,5.3-7.9l6.1-86.3-12.2-1.3Z"/>
  <g id="_7" data-name="7">
    <path class="cls-2" d="M182.7,179.8s7,10.4,10.3,13c3.3,2.5,29,21.7,36,26.2,7,4.6,20.8,13.9,24.7,18.3,3.9,4.4,10.7,12.5,10.7,12.5,0,0-14.3-5.1-25.5-11.9-11.2-6.8-36.8-25-42.5-28.7-5.7-3.7-19.4-12.2-19.4-12.2l5.8-17.2Z"/>
    <path class="cls-5" d="M247.5,233.1l-25-17.3s7.9,8.1,12.3,11c4.4,2.9,12.6,6.3,12.6,6.3h0Z"/>
  </g>
  <path id="_8" data-name="8" class="cls-2" d="M283.4,176.2c-2.2-23.1-4.3-46.2-6.5-69.4l-6-17.2-9.8,1-1.4,15.1,8.3,18s2.3,7.4-.1,11.1c-2.4,3.8-5.4,4.7-8,5.2l-2.3.4-.6-5.7-4.5,3.2.7,5.9s6.2-1.3,6.6,1.1c.4,2.5-6.1,4.2-6.1,4.2,1.6,9,3.2,18.1,4.8,27.1h24.8Z"/>
  <g id="base">
    <path id="base-2" data-name="base" class="cls-8" d="M292.9,174.3c0,12.7-6.6,23-14.7,23H77.7c-8.1-.2-14.6-10.4-14.6-23s6.5-22.8,14.6-23h200.4c8.1,0,14.7,10.3,14.7,23Z"/>
    <path class="cls-6" d="M261.3,173.4v1.9c0,.7-.6,1.3-1.3,1.3h-5.2v5.2c0,.7-.6,1.3-1.3,1.3h-1.9c-.7,0-1.3-.6-1.3-1.3v-5.2h-5.2c-.7,0-1.3-.6-1.3-1.3v-1.9c0-.7.6-1.3,1.3-1.3h5.2v-5.2c0-.7.6-1.3,1.3-1.3h1.9c.7,0,1.3.6,1.3,1.3v5.2h5.2c.7,0,1.3.6,1.3,1.3Z"/>
    <rect class="cls-7" x="240" y="161.8" width="25" height="25" rx="4.4" ry="4.4"/>
  </g>
</svg>